<?xml version="1.0" encoding="UTF-8" standalone="no"?>
<svg
   xmlns:dc="http://purl.org/dc/elements/1.1/"
   xmlns:cc="http://creativecommons.org/ns#"
   xmlns:rdf="http://www.w3.org/1999/02/22-rdf-syntax-ns#"
   xmlns:svg="http://www.w3.org/2000/svg"
   xmlns="http://www.w3.org/2000/svg"
   viewBox="0 0 500 500"
   height="500"
   width="500"
   xml:space="preserve"
   id="svg46"
   version="1.1"><metadata
     id="metadata52"><rdf:RDF><cc:Work
         rdf:about=""><dc:format>image/svg+xml</dc:format><dc:type
           rdf:resource="http://purl.org/dc/dcmitype/StillImage" /></cc:Work></rdf:RDF></metadata><defs
     id="defs50" /><g
     transform="matrix(1.3333333,0,0,-1.3333333,0,500)"
     id="g54"><g
       id="g56"><path
         id="path58"
         style="fill:#252589;fill-opacity:1;fill-rule:nonzero;stroke:none"
         d="m 198.773,172.797 c 5.688,0 11.028,1.16 16.016,3.133 -0.113,0 -0.23,-0.118 -0.23,-0.118 -24.84,-14.39 -56.524,-5.917 -71.149,18.688 -7.078,11.953 -7.66,27.16 -0.23,40.043 8.008,13.809 22.98,21.008 37.953,19.613 -14.625,-6.73 -24.957,-21.586 -24.957,-38.765 0,-23.563 19.152,-42.594 42.597,-42.594 z m 10.68,23.094 c -14.973,-8.586 -32.848,-7.196 -46.078,2.207 6.266,-13.578 20.078,-22.981 35.98,-22.981 14.856,0 27.739,8.125 34.469,20.195 14.043,24.954 5.457,56.524 -19.383,70.915 -0.117,0 -0.23,0.117 -0.23,0.117 4.176,-3.25 7.891,-7.43 10.676,-12.305 11.84,-20.309 4.875,-46.426 -15.434,-58.148 z m -9.75,55.828 c 14.856,-8.59 22.633,-24.953 21.008,-40.969 8.586,12.184 9.98,28.898 1.973,42.711 -7.43,12.766 -20.895,19.848 -34.704,19.73 -28.668,-0.23 -51.765,-23.562 -51.765,-52.23 v -0.348 c 0.695,5.34 2.437,10.563 5.34,15.438 11.722,20.426 37.718,27.39 58.148,15.668 z" /><path
         id="path60"
         style="fill:#303030;fill-opacity:1;fill-rule:nonzero;stroke:none"
         d="m 75.789,153.137 c 1.246,0.34 2.602,0.191 4.066,-0.442 1.93,-0.832 2.883,-2.199 2.856,-4.101 -0.023,-0.442 -0.293,-0.93 -0.809,-1.465 -1.195,-1.024 -2.586,-1.231 -4.168,-0.621 -0.273,0.144 -0.515,0.363 -0.738,0.66 -0.34,0.609 -0.695,1.07 -1.062,1.387 -0.875,0.636 -1.411,1.32 -1.606,2.054 -0.297,1.145 0.192,1.989 1.461,2.528 z m -1.793,-8.828 c 2.223,0.882 4.442,0.195 6.66,-2.055 0.805,-0.731 1.223,-1.703 1.246,-2.926 0.442,-6.906 0.344,-12.121 -0.293,-15.637 -0.312,-1.05 -1.07,-1.953 -2.265,-2.707 -3.563,-1.734 -6.824,-1.578 -9.778,0.473 -1.543,1.297 -2.066,2.734 -1.578,4.32 0.953,1.661 2.196,2.149 3.739,1.469 0.437,-0.269 0.683,-0.598 0.734,-0.988 0.195,-1.024 0.5,-1.758 0.914,-2.199 0.461,-0.321 0.836,-0.305 1.133,0.039 0.465,0.484 0.73,1.07 0.801,1.754 -0.043,3.929 -0.008,7.875 0.113,11.828 0.027,0.929 0,1.906 -0.074,2.933 -0.071,0.34 -0.387,0.68 -0.953,1.02 -0.661,0.344 -1.012,0.773 -1.059,1.281 -0.074,0.566 0.148,1.031 0.66,1.395 z m 20.109,1.207 c 0.704,0.855 2.106,0.871 4.207,0.039 2.219,-1.051 3.379,-2.649 3.481,-4.801 l -0.113,-9.848 c 0.074,-0.488 0.199,-0.98 0.367,-1.468 0.855,-1.559 2.539,-1.61 5.055,-0.141 0.586,0.414 0.867,0.984 0.839,1.715 l 0.075,10.734 c 0.05,0.93 -0.18,1.66 -0.696,2.195 -0.289,0.93 0.016,1.555 0.914,1.868 0.786,0.367 1.762,0.39 2.934,0.078 2.219,-0.809 3.465,-2.199 3.734,-4.18 0.196,-0.609 0.207,-1.672 0.039,-3.187 -0.195,-4.293 -0.086,-8.258 0.329,-11.895 0.121,-0.465 0.144,-1.027 0.074,-1.687 -0.196,-0.516 -0.574,-0.844 -1.141,-0.989 -1.754,-0.613 -3.363,-0.441 -4.828,0.508 -0.414,0.465 -0.988,0.527 -1.727,0.188 -3.683,-1.391 -6.769,-1.379 -9.261,0.039 -1.219,0.703 -2.035,1.558 -2.453,2.562 -0.758,1.758 -1.063,3.645 -0.914,5.672 0.289,3.25 0.402,5.754 0.332,7.508 -0.079,1.125 -0.543,2.09 -1.399,2.894 -0.437,0.735 -0.387,1.469 0.152,2.196 z m 32.301,-1.61 c -0.758,1.93 0.008,2.688 2.305,2.27 0.777,-0.145 1.758,-0.582 2.93,-1.317 0.66,-0.613 1.285,-0.746 1.871,-0.406 1.558,0.953 3.375,1.516 5.449,1.688 2.398,0 4.351,-0.746 5.867,-2.235 1.465,-1.636 2.11,-3.906 1.934,-6.812 -0.094,-4.539 -0.043,-8.055 0.152,-10.543 -0.121,-1.59 -0.828,-2.653 -2.125,-3.188 -2.859,-0.367 -4.629,0.828 -5.309,3.586 -0.218,2.223 -0.136,5.555 0.254,9.996 v 2.821 c -0.125,1.859 -0.968,2.48 -2.527,1.867 -1.168,-0.535 -2.051,-1.317 -2.641,-2.34 -0.339,-0.367 -0.668,-0.621 -0.98,-0.773 -0.297,-0.094 -0.469,-0.434 -0.52,-1.02 -0.093,-3.25 -0.031,-6.852 0.188,-10.809 -0.051,-1.609 -0.723,-2.695 -2.016,-3.253 -1.734,-0.465 -3.117,0.093 -4.14,1.679 -0.731,2.567 -0.875,7.071 -0.434,13.516 0.242,2.539 0.16,4.297 -0.258,5.273 z m 36.145,9.231 c 1.246,0.34 2.597,0.191 4.062,-0.442 1.934,-0.832 2.883,-2.199 2.86,-4.101 -0.024,-0.442 -0.293,-0.93 -0.801,-1.465 -1.203,-1.024 -2.594,-1.231 -4.18,-0.621 -0.269,0.144 -0.515,0.363 -0.734,0.66 -0.34,0.609 -0.692,1.07 -1.059,1.387 -0.879,0.636 -1.418,1.32 -1.613,2.054 -0.293,1.145 0.195,1.989 1.465,2.528 z m -1.793,-8.828 c 2.219,0.882 4.441,0.195 6.668,-2.055 0.804,-0.731 1.219,-1.703 1.246,-2.926 0.437,-6.906 0.34,-12.121 -0.293,-15.637 -0.32,-1.05 -1.078,-1.953 -2.274,-2.707 -3.566,-1.734 -6.824,-1.578 -9.781,0.473 -1.535,1.297 -2.058,2.734 -1.574,4.32 0.953,1.661 2.199,2.149 3.734,1.469 0.442,-0.269 0.688,-0.598 0.735,-0.988 0.195,-1.024 0.5,-1.758 0.918,-2.199 0.465,-0.321 0.84,-0.305 1.129,0.039 0.468,0.484 0.738,1.07 0.812,1.754 -0.051,3.929 -0.016,7.875 0.106,11.828 0.023,0.929 0,1.906 -0.071,2.933 -0.074,0.34 -0.39,0.68 -0.949,1.02 -0.66,0.344 -1.016,0.773 -1.066,1.281 -0.075,0.566 0.144,1.031 0.66,1.395 z m 20.105,8.5 c 1.078,0.66 2.492,0.73 4.246,0.214 1.153,-0.386 2.102,-1.07 2.86,-2.046 0.855,-1.418 0.84,-2.641 -0.039,-3.668 -1.219,-1.168 -2.684,-1.461 -4.395,-0.875 -0.637,0.242 -1.012,0.632 -1.133,1.168 -0.195,0.414 -0.586,0.855 -1.168,1.32 -1.593,1.492 -1.714,2.785 -0.371,3.887 z m 1.211,-8.282 c 1.488,0.321 3.028,0.051 4.61,-0.8 1.421,-0.805 2.152,-1.918 2.199,-3.34 -0.047,-2.168 -0.059,-4.375 -0.039,-6.621 0.418,-4.227 0.355,-7.082 -0.18,-8.575 -0.855,-1.972 -2.344,-2.632 -4.469,-1.98 -1.246,0.418 -2.039,1.465 -2.379,3.152 -0.363,1.516 -0.39,4.25 -0.074,8.203 0.516,3.836 0.36,6.84 -0.472,9.008 -0.075,0.414 0.191,0.735 0.804,0.953 z m 21.899,0.149 c 3.078,1.465 5.961,1.906 8.648,1.32 2.34,-0.437 4,-1.758 4.981,-3.957 0.312,-0.855 0.496,-1.758 0.546,-2.711 -0.074,-4.027 0.047,-7.582 0.368,-10.656 0,-0.559 0.242,-1.559 0.726,-3 0.074,-0.516 0.004,-1.031 -0.219,-1.543 -0.683,-1.172 -1.953,-1.414 -3.808,-0.731 -0.68,0.34 -1.156,0.684 -1.426,1.028 -0.488,0.707 -1.113,0.875 -1.867,0.512 -3.59,-1.661 -6.738,-1.918 -9.449,-0.774 -0.805,0.297 -1.61,1.027 -2.414,2.199 -1.418,2.664 -1.223,5.231 0.582,7.696 0.66,0.855 1.613,1.511 2.859,1.972 1.906,0.735 3.859,1.172 5.859,1.321 l 1.356,0.253 c 0.637,0.176 0.953,0.543 0.953,1.102 0.363,2.219 -0.477,3.027 -2.527,2.414 -0.735,-0.269 -1.715,-0.793 -2.934,-1.574 -1.93,-1.559 -3.797,-1.91 -5.602,-1.059 -1.367,0.852 -1.988,2 -1.867,3.446 0.27,1.265 1.039,1.8 2.309,1.605 0.781,0.098 1.754,0.477 2.926,1.137 z m 6.226,-11.465 -0.73,-0.18 -1.469,-0.406 c -1.172,-0.441 -1.801,-1.121 -1.898,-2.047 -0.075,-0.586 0.058,-1.086 0.398,-1.5 0.828,-0.785 2.262,-0.699 4.289,0.254 0.609,0.316 0.902,0.84 0.879,1.574 v 1.758 c 0,0.609 -0.492,0.789 -1.469,0.547 z m 19.965,-2.492 c 0.879,0.855 2.148,0.965 3.809,0.332 2.879,-1.61 3.808,-3.77 2.781,-6.481 -0.582,-1.195 -1.453,-1.867 -2.602,-2.011 -2.371,-0.395 -3.711,0.57 -4.027,2.89 0.094,0.879 0.094,1.77 0,2.676 -0.586,1.023 -0.574,1.891 0.039,2.594 z m 19.371,14.875 c 0.465,0.828 1.367,0.965 2.707,0.402 0.465,-0.148 0.93,-0.394 1.395,-0.734 0.636,-0.539 1.297,-0.551 1.98,-0.035 2.711,1.437 5.285,1.414 7.727,-0.079 0.777,-0.609 1.511,-0.695 2.195,-0.253 1.781,1.218 3.867,1.66 6.262,1.32 1.933,-0.363 3.469,-1.563 4.613,-3.594 0.832,-1.703 1.039,-4.34 0.625,-7.902 0,-1.246 0.047,-2.528 0.149,-3.848 0.093,-2.762 0.046,-4.641 -0.149,-5.641 -0.098,-0.585 -0.34,-1.074 -0.73,-1.464 -1.028,-0.93 -2.383,-1.039 -4.063,-0.328 -0.93,0.441 -1.508,1.062 -1.726,1.867 -0.661,2.125 -0.782,5.371 -0.368,9.742 0.024,2.051 0.086,4.113 0.188,6.187 -0.024,0.856 -0.43,1.207 -1.215,1.059 -0.559,-0.121 -1.316,-0.875 -2.266,-2.266 -0.269,-0.293 -0.418,-0.539 -0.441,-0.734 0.195,-1.344 0.258,-2.797 0.187,-4.359 -0.101,-2.633 -0.089,-4.454 0.032,-5.457 0.316,-2.274 0.246,-3.907 -0.219,-4.907 -0.926,-1.32 -2.133,-1.722 -3.621,-1.207 -1.688,0.508 -2.578,1.742 -2.68,3.696 -0.121,2.589 -0.035,5.472 0.254,8.64 0.176,2.004 0.215,3.949 0.113,5.828 -0.168,0.61 -0.57,0.864 -1.207,0.766 -0.586,0.023 -1.207,-0.438 -1.867,-1.387 -0.414,-0.586 -0.562,-1.246 -0.441,-1.98 l 0.109,-0.512 c 0,-1.59 -0.047,-3.273 -0.148,-5.055 -0.02,-1.879 0.019,-3.675 0.113,-5.382 0.219,-1.465 0.109,-2.688 -0.332,-3.661 -0.754,-1.027 -1.754,-1.32 -3,-0.878 -0.902,0.289 -1.609,0.765 -2.121,1.425 -0.59,1.051 -0.918,2.391 -0.988,4.028 -0.028,2.66 0.105,5.468 0.394,8.421 0.348,2.321 0.066,4.25 -0.84,5.79 -0.66,0.882 -0.867,1.71 -0.621,2.492 z m 46.914,0.547 c 2.223,0.269 4.41,-0.11 6.555,-1.133 2.199,-1.371 3.578,-3.192 4.137,-5.461 0.32,-0.949 0.359,-2.254 0.113,-3.914 -0.414,-1.219 -1.258,-1.672 -2.527,-1.36 -3.2,0.368 -6.399,0.293 -9.59,-0.214 -1.125,0.117 -1.555,-0.407 -1.285,-1.575 0.441,-2.863 1.808,-4.168 4.101,-3.925 1.418,0.195 2.442,1.062 3.078,2.605 0.559,1.734 1.668,2.285 3.328,1.648 1.051,-0.269 1.868,-1.039 2.453,-2.308 0.442,-2.223 -0.976,-4.199 -4.246,-5.934 -2.953,-1.441 -6.152,-1.523 -9.589,-0.254 -1.641,0.778 -3.024,1.95 -4.141,3.516 -1.176,1.949 -1.797,3.902 -1.867,5.859 -0.246,2.219 0.105,4.442 1.054,6.668 1.981,3.539 4.789,5.465 8.426,5.782 z m 0.289,-4.727 c -1.777,-0.465 -2.668,-1.418 -2.668,-2.855 0.168,-0.317 0.598,-0.387 1.282,-0.219 1.414,0.246 2.832,0.441 4.246,0.586 0.586,0.097 0.941,0.211 1.066,0.328 0.195,0.687 -0.184,1.308 -1.133,1.867 -0.883,0.441 -1.812,0.539 -2.793,0.293 z" /><path
         id="path62"
         style="fill:#303030;fill-opacity:1;fill-rule:nonzero;stroke:none"
         d="m 67.965,110.977 h 3.187 v 2.968 h 1.688 v -12.246 h -1.688 v 2.766 c -0.394,-0.172 -1.375,-0.59 -2.941,-1.242 l -0.711,1.648 c 0.773,0.219 1.992,0.629 3.652,1.231 v 3.269 h -3.187 z m 8.805,-7.582 h 1.41 c 0.246,0 0.41,0.171 0.496,0.515 0.086,0.34 0.148,1.074 0.187,2.199 0.434,-0.339 0.946,-0.582 1.528,-0.718 -0.075,-1.348 -0.254,-2.278 -0.539,-2.801 -0.278,-0.52 -0.786,-0.778 -1.516,-0.778 h -1.805 c -0.769,0 -1.297,0.176 -1.578,0.524 -0.273,0.348 -0.41,0.992 -0.41,1.941 v 9.657 h 1.656 v -4.051 c 1.02,0.648 1.942,1.332 2.77,2.047 l 1.16,-1.442 c -1.063,-0.718 -2.375,-1.484 -3.93,-2.293 v -3.937 c 0,-0.383 0.035,-0.617 0.106,-0.715 0.066,-0.098 0.218,-0.148 0.465,-0.148 z m 79.132,2.714 v -1.394 h -4.468 c 0.878,-0.965 2.461,-1.527 4.746,-1.688 -0.36,-0.371 -0.676,-0.867 -0.946,-1.492 -1.398,0.168 -2.531,0.488 -3.39,0.953 -0.86,0.465 -1.555,1.137 -2.082,2.016 -0.371,-0.754 -0.985,-1.367 -1.84,-1.836 -0.86,-0.473 -2.098,-0.84 -3.711,-1.106 -0.141,0.512 -0.402,0.997 -0.789,1.45 1.254,0.172 2.234,0.39 2.941,0.66 0.699,0.273 1.223,0.621 1.567,1.043 h -4.274 v 1.394 h 4.891 c 0.043,0.215 0.09,0.489 0.133,0.817 h -4.942 v 1.441 h 5.153 v 0.684 h -4 v 1.355 h 4 v 0.692 h -4.614 v 1.41 h 2.332 c -0.164,0.379 -0.398,0.75 -0.695,1.117 l 1.422,0.555 c 0.465,-0.492 0.793,-1 0.984,-1.532 l -0.3,-0.14 h 3.351 l -0.383,0.117 c 0.399,0.527 0.703,1.051 0.926,1.57 l 1.723,-0.422 c -0.149,-0.211 -0.457,-0.632 -0.922,-1.265 h 2.504 v -1.41 h -4.68 v -0.692 h 4.141 v -1.355 h -4.141 v -0.684 h 5.223 v -1.441 h -5.379 c -0.031,-0.27 -0.071,-0.543 -0.121,-0.817 z m 73.532,-3.136 v 0.925 h -1.922 v -0.925 z m -1.922,-1.411 h -1.41 v 3.43 h 4.824 v -3.414 h -1.492 v 0.317 h -1.922 z m -0.41,5.793 h -3.032 c 0.196,-0.257 0.317,-0.484 0.368,-0.691 l -0.383,-0.066 h 2.871 l -0.141,0.027 c 0.012,0.012 0.113,0.254 0.317,0.73 z m 1.527,1.688 h -6.207 v -0.676 h 6.207 z m 1.57,-1.688 h -1.515 l 0.187,-0.031 c -0.035,-0.058 -0.195,-0.301 -0.473,-0.726 h 3.082 v -1.172 h -8.347 c -0.016,-0.219 -0.039,-0.422 -0.074,-0.606 h 2.503 c -0.011,-0.211 -0.023,-0.375 -0.046,-0.488 -0.11,-1.324 -0.297,-2.117 -0.563,-2.371 -0.183,-0.211 -0.469,-0.336 -0.851,-0.383 -0.321,-0.027 -0.793,-0.027 -1.418,0 -0.016,0.371 -0.125,0.754 -0.325,1.149 0.375,-0.043 0.719,-0.067 1.028,-0.067 0.175,0 0.297,0.039 0.367,0.117 0.105,0.118 0.195,0.426 0.262,0.926 h -1.266 c -0.211,-0.519 -0.531,-0.957 -0.961,-1.305 -0.43,-0.355 -1.031,-0.644 -1.805,-0.863 -0.16,0.399 -0.406,0.75 -0.73,1.055 0.937,0.23 1.59,0.601 1.957,1.113 h -1.402 v 1.117 h 1.863 c 0.031,0.184 0.062,0.387 0.082,0.606 h -2.152 v 1.172 h 3.179 c -0.09,0.25 -0.211,0.48 -0.359,0.687 l 0.516,0.07 h -1.997 v 2.731 h 9.258 z m -3.887,6.786 v -0.75 h 5.243 v -1.161 h -5.243 v -0.542 h 4.266 v -1.11 h -9.988 v 1.11 h 4.101 v 0.542 h -5.078 v 1.161 h 5.078 v 0.75 z m 77.754,-4.559 v 2.625 h -8.492 v 1.344 h 11.59 v -1.344 h -1.508 v -2.656 c 0,-0.36 -0.054,-0.637 -0.16,-0.832 -0.105,-0.199 -0.285,-0.352 -0.539,-0.457 -0.359,-0.149 -1.094,-0.227 -2.195,-0.227 -0.082,0.43 -0.246,0.883 -0.489,1.36 0.411,-0.016 0.915,-0.024 1.516,-0.024 0.184,0 0.277,0.07 0.277,0.211 z m -3.324,1.012 h -2.281 v -0.938 h 2.281 z m 1.485,1.043 v -3.024 h -5.18 v 3.024 z m -3.875,-7.817 h 2.375 v 0.977 h -2.375 z m -1.5,2.125 h 5.406 v -3.261 h -3.906 V 102 h -1.5 z m -1.571,2 H 307.5 v -1.371 h -1.828 v -3.39 c 0,-0.383 -0.055,-0.684 -0.16,-0.899 -0.106,-0.215 -0.285,-0.383 -0.539,-0.496 -0.36,-0.168 -1.102,-0.254 -2.227,-0.254 -0.07,0.449 -0.234,0.942 -0.488,1.477 0.41,-0.024 0.914,-0.039 1.515,-0.039 0.184,0.011 0.278,0.089 0.278,0.242 v 3.359 h -8.77 z" /></g></g></svg>